<svg xmlns="http://www.w3.org/2000/svg" xmlns:xlink="http://www.w3.org/1999/xlink" width="500" zoomAndPan="magnify" viewBox="0 0 375 374.999991" height="500" preserveAspectRatio="xMidYMid meet" version="1.0"><defs><g/><clipPath id="62939560d3"><path d="M 51 116.382812 L 130 116.382812 L 130 266.382812 L 51 266.382812 Z M 51 116.382812 " clip-rule="nonzero"/></clipPath><clipPath id="839514f4d6"><path d="M 66.992188 110.851562 L 94.734375 110.851562 L 94.734375 166.507812 L 66.992188 166.507812 Z M 66.992188 110.851562 " clip-rule="nonzero"/></clipPath><clipPath id="df3d56e9ea"><path d="M 80 79.507812 L 92 79.507812 L 92 91 L 80 91 Z M 80 79.507812 " clip-rule="nonzero"/></clipPath><clipPath id="69606c0a48"><path d="M 88.316406 93.625 L 94.734375 93.625 L 94.734375 100.453125 L 88.316406 100.453125 Z M 88.316406 93.625 " clip-rule="nonzero"/></clipPath></defs><g clip-path="url(#62939560d3)"><path fill="#c60032" d="M 87.96875 132.8125 C 86.460938 174.03125 27.386719 173.539062 62.265625 222.105469 C 41.644531 172.292969 101.472656 175.960938 87.96875 132.8125 Z M 92.714844 133.15625 C 99.886719 143.253906 105.894531 153.519531 102.226562 165.535156 C 104.8125 169.542969 110.066406 172.800781 111.148438 177.632812 C 108.726562 177.550781 106.480469 178.21875 104.222656 179.300781 C 104.222656 182.050781 106.304688 182.96875 106.222656 184.554688 C 106.222656 186.0625 105.222656 186.636719 103.964844 187.304688 C 104.554688 188.222656 103.457031 189.140625 103.71875 189.894531 C 105.058594 195.984375 103.554688 198.40625 100.96875 198.242188 C 86.695312 197.160156 77.855469 196.816406 73.597656 202.824219 C 69.179688 209.078125 69.929688 214.675781 73.761719 219.683594 C 84.355469 233.367188 112.230469 224.445312 115.488281 212.761719 C 111.640625 218.4375 105.140625 222.613281 98.886719 222.1875 C 103.390625 208.257812 112.570312 199.484375 129.761719 200.992188 C 119.070312 209.667969 121.082031 218.933594 106.976562 225.527344 C 100.722656 228.441406 94.960938 230.113281 89.28125 230.03125 C 58.570312 229.785156 49.894531 199.320312 75.84375 176.042969 C 84.875 167.941406 96.054688 157.515625 92.714844 133.15625 Z M 110.410156 227.527344 L 110.410156 229.523438 C 110.410156 234.777344 109.902344 239.707031 108.988281 244.207031 C 108.070312 248.628906 106.480469 252.472656 104.402344 255.730469 C 102.320312 258.988281 99.640625 261.574219 96.316406 263.488281 C 92.976562 265.40625 88.964844 266.320312 84.382812 266.320312 C 82.207031 266.320312 80.042969 265.992188 77.867188 265.324219 C 75.691406 264.652344 73.777344 263.652344 72.105469 262.230469 C 70.355469 260.890625 69.015625 259.21875 68.015625 257.058594 C 67.015625 254.976562 66.507812 252.472656 66.507812 249.625 C 66.507812 246.535156 67.261719 243.78125 68.847656 241.441406 C 70.355469 239.019531 72.597656 237.859375 75.445312 237.859375 C 77.445312 237.859375 79.03125 238.773438 80.207031 240.527344 C 81.371094 242.277344 81.960938 244.535156 81.960938 247.203125 C 81.960938 249.953125 81.207031 251.871094 79.621094 253.046875 C 78.03125 254.128906 75.953125 255.386719 73.1875 256.550781 C 76.855469 260.476562 80.277344 262.476562 83.367188 262.476562 C 85.792969 262.476562 87.871094 261.476562 89.539062 259.382812 C 91.292969 257.386719 92.128906 254.210938 92.128906 249.871094 C 92.128906 248.367188 91.878906 246.863281 91.539062 245.371094 C 91.128906 243.863281 90.539062 242.359375 89.867188 240.703125 C 89.035156 238.707031 88.363281 236.449219 87.691406 234.027344 C 87.691406 233.78125 87.609375 233.519531 87.609375 233.355469 C 88.117188 233.355469 88.691406 233.355469 89.199219 233.355469 C 95.957031 233.4375 102.292969 231.359375 108.398438 228.59375 C 109.070312 228.277344 109.738281 227.949219 110.410156 227.527344 Z M 110.410156 180.96875 L 110.410156 201.25 C 103.566406 205.179688 98.722656 211.9375 95.726562 221.191406 L 95.21875 222.777344 C 92.550781 223.285156 89.621094 223.449219 86.789062 223.023438 L 86.789062 200.992188 C 91.375 200.828125 96.21875 201.238281 100.722656 201.578125 C 101.882812 201.660156 103.144531 201.496094 104.140625 200.910156 C 108.152344 198.734375 107.890625 193.558594 107.152344 189.730469 C 107.234375 189.566406 107.234375 189.316406 107.316406 189.140625 C 108.742188 188.058594 109.574219 186.71875 109.65625 184.554688 C 109.65625 184.144531 109.574219 183.804688 109.492188 183.394531 C 109.328125 182.476562 108.988281 181.886719 108.574219 181.3125 C 109.152344 181.132812 109.820312 181.050781 110.410156 180.96875 Z M 123.257812 119.882812 L 110.410156 119.882812 L 110.410156 169.695312 C 109.902344 169.1875 109.492188 168.695312 108.90625 168.105469 C 107.988281 167.109375 106.824219 166.027344 105.894531 164.851562 C 109.738281 148.496094 94.46875 131.050781 86.871094 116.449219 L 123.257812 116.449219 Z M 123.257812 119.882812 " fill-opacity="1" fill-rule="evenodd"/></g><g clip-path="url(#839514f4d6)"><path fill="#c60032" d="M 92.9375 144.90625 C 93.902344 138.707031 92.226562 132.503906 91.394531 129.6875 C 90.558594 126.867188 88.414062 121.214844 88.414062 121.214844 C 86.140625 120.441406 83.6875 121.398438 83.6875 121.398438 C 83.6875 121.398438 84.890625 126.210938 84.570312 127.144531 C 84.253906 128.082031 80.660156 124.625 80.660156 124.625 C 77.308594 135.574219 86.390625 141.789062 86.390625 141.789062 C 86.390625 141.789062 81.339844 139.253906 79.507812 133.484375 C 78.484375 130.253906 79.148438 124.496094 80.460938 122.992188 C 81.929688 121.304688 82.90625 120.238281 87.425781 120.28125 C 90.613281 120.3125 92.703125 120.074219 93.730469 119.574219 C 94.019531 119.433594 93.992188 119.015625 93.6875 118.917969 C 91.792969 118.320312 86.933594 116.800781 85.96875 116.652344 C 85.105469 116.519531 81.679688 117.164062 79.808594 117.542969 C 79.007812 117.703125 78.285156 118.117188 77.738281 118.722656 L 73.792969 125.054688 L 77.125 117.945312 C 77.628906 117.222656 78.382812 116.710938 79.238281 116.492188 C 80.703125 116.121094 81.675781 115.667969 83.179688 115.402344 C 83.089844 115.753906 83.046875 116.160156 83.039062 116.59375 C 84.285156 116.390625 85.417969 116.25 85.863281 116.320312 C 85.867188 116.320312 85.875 116.320312 85.878906 116.324219 C 85.621094 115.898438 85.359375 115.515625 85.109375 115.195312 C 85.898438 115.160156 86.820312 115.167969 87.945312 115.234375 C 91.953125 115.472656 93.914062 115.289062 94.84375 114.660156 C 95.15625 114.453125 95.070312 113.96875 94.714844 113.855469 C 92.078125 113.019531 87.4375 110.660156 86.269531 110.9375 C 84.972656 111.242188 76.976562 111.890625 75.019531 112.003906 C 73.035156 112.113281 70.257812 121.839844 68.042969 126.832031 C 65.824219 131.824219 66.949219 133.894531 73.035156 141.132812 C 84.617188 154.914062 77.984375 166.539062 77.984375 166.539062 C 77.984375 166.539062 91.179688 156.246094 92.9375 144.90625 " fill-opacity="1" fill-rule="nonzero"/></g><path fill="#c60032" d="M 74.632812 111.550781 L 78.28125 111.171875 C 78.28125 111.171875 79.453125 108.378906 84.671875 106.796875 C 87.625 105.898438 90.273438 105.160156 91.578125 104.070312 C 92.035156 103.691406 91.800781 102.949219 91.207031 102.894531 C 88.90625 102.6875 84.574219 102.378906 83.121094 102.855469 C 81.105469 103.515625 75.726562 106.386719 73.796875 107.894531 C 71.867188 109.40625 70.101562 120.519531 70.101562 120.519531 L 72.847656 113.015625 C 73.132812 112.238281 73.816406 111.679688 74.632812 111.550781 " fill-opacity="1" fill-rule="nonzero"/><path fill="#c60032" d="M 79.910156 93.1875 C 78.566406 93.847656 76.34375 99.957031 75.5 101.386719 C 74.660156 102.816406 73.558594 107.105469 73.558594 107.105469 L 78.734375 104.125 C 81.421875 98.621094 81.257812 92.523438 79.910156 93.1875 " fill-opacity="1" fill-rule="nonzero"/><g clip-path="url(#df3d56e9ea)"><path fill="#c60032" d="M 89.007812 79.507812 L 88.355469 82.148438 C 88.003906 83.570312 88.480469 85.070312 89.582031 86.03125 L 91.636719 87.816406 L 88.996094 87.164062 C 87.574219 86.8125 86.074219 87.289062 85.113281 88.390625 L 83.328125 90.445312 L 83.976562 87.804688 C 84.328125 86.378906 83.855469 84.882812 82.75 83.921875 L 80.699219 82.132812 L 83.339844 82.785156 C 84.761719 83.136719 86.261719 82.664062 87.222656 81.558594 L 89.007812 79.507812 " fill-opacity="1" fill-rule="nonzero"/></g><g clip-path="url(#69606c0a48)"><path fill="#c60032" d="M 93.425781 93.664062 L 93.023438 95.289062 C 92.808594 96.164062 93.101562 97.082031 93.777344 97.675781 L 95.039062 98.773438 L 93.417969 98.371094 C 92.542969 98.15625 91.621094 98.445312 91.03125 99.125 L 89.933594 100.386719 L 90.332031 98.761719 C 90.550781 97.890625 90.257812 96.96875 89.578125 96.378906 L 88.320312 95.28125 L 89.941406 95.679688 C 90.816406 95.894531 91.738281 95.605469 92.328125 94.925781 L 93.425781 93.664062 " fill-opacity="1" fill-rule="nonzero"/></g><path fill="#c60032" d="M 71.601562 93.535156 L 71.289062 94.8125 C 71.117188 95.496094 71.347656 96.222656 71.878906 96.6875 L 72.871094 97.546875 L 71.59375 97.234375 C 70.910156 97.0625 70.1875 97.292969 69.722656 97.824219 L 68.859375 98.816406 L 69.175781 97.542969 C 69.34375 96.855469 69.113281 96.132812 68.582031 95.667969 L 67.589844 94.804688 L 68.867188 95.121094 C 69.550781 95.289062 70.277344 95.058594 70.738281 94.527344 L 71.601562 93.535156 " fill-opacity="1" fill-rule="nonzero"/><path fill="#c60032" d="M 73.503906 83.425781 L 73.257812 84.425781 C 73.125 84.96875 73.304688 85.535156 73.722656 85.898438 L 74.5 86.578125 L 73.5 86.328125 C 72.960938 86.195312 72.390625 86.375 72.027344 86.792969 L 71.347656 87.574219 L 71.597656 86.570312 C 71.730469 86.03125 71.550781 85.464844 71.132812 85.101562 L 70.351562 84.421875 L 71.355469 84.667969 C 71.894531 84.800781 72.460938 84.621094 72.828125 84.203125 L 73.503906 83.425781 " fill-opacity="1" fill-rule="nonzero"/><g fill="#c60032" fill-opacity="1"><g transform="translate(129.759913, 160.416048)"><g><path d="M 14.496094 3.875 C -2.464844 17.546875 -2.699219 37.265625 5.984375 37.679688 C 14.496094 38.089844 16.550781 19.367188 18.664062 2.289062 C 22.242188 0.410156 31.574219 -6.105469 37.972656 -13.734375 C 37.972656 -14.027344 37.03125 -14.027344 36.855469 -13.792969 C 31.398438 -7.511719 22.710938 -1.113281 18.78125 1.113281 C 19.425781 -9.039062 20.128906 -18.488281 21.773438 -21.714844 C 21.714844 -23.417969 18.957031 -24.414062 17.019531 -20.246094 C 11.679688 -8.746094 7.570312 2.113281 4.753906 2.289062 C 1.878906 2.464844 3.875 -13.027344 5.164062 -18.898438 C 5.808594 -21.773438 1.820312 -21.480469 0.9375 -18.664062 C -0.761719 -13.441406 -1.820312 2.699219 4.578125 3.109375 C 8.390625 3.34375 12.734375 -8.804688 16.902344 -17.136719 C 15.433594 -10.738281 14.730469 1.703125 14.496094 3.875 Z M 14.4375 5.164062 C 13.027344 18.136719 11.152344 36.972656 6.164062 36.738281 C -1.46875 36.386719 -0.585938 18.136719 14.4375 5.164062 Z M 14.4375 5.164062 "/></g></g></g><g fill="#c60032" fill-opacity="1"><g transform="translate(166.497051, 160.416048)"><g><path d="M 4.167969 -17.957031 C 4.402344 -20.246094 0.996094 -18.78125 0.410156 -16.433594 C -1.292969 -5.808594 -0.761719 -7.511719 -1.761719 -0.117188 C -1.9375 1.351562 0.351562 2.640625 1.234375 0 L 2.347656 -5.925781 C 6.867188 -21.246094 13.851562 -27.9375 16.902344 -25.707031 C 19.953125 -23.535156 10.976562 0.410156 16.375 3.226562 C 17.898438 3.992188 18.722656 3.992188 20.777344 2.464844 C 26.058594 -1.46875 31.925781 -9.566406 35.15625 -13.792969 C 35.15625 -14.085938 34.390625 -14.085938 34.15625 -13.851562 C 31.632812 -10.621094 24.882812 -0.996094 19.71875 2.171875 C 10.976562 7.511719 25.472656 -20.011719 17.488281 -26.410156 C 14.554688 -28.699219 8.511719 -24.882812 3.34375 -11.738281 C 3.640625 -13.675781 3.875 -15.433594 4.167969 -17.957031 Z M 4.167969 -17.957031 "/></g></g></g><g fill="#c60032" fill-opacity="1"><g transform="translate(200.182543, 160.416048)"><g><path d="M 8.804688 -9.566406 C 8.273438 -9.039062 13.617188 -6.28125 13.617188 -6.28125 C 9.566406 -1.585938 8.980469 8.921875 15.257812 9.15625 C 19.542969 9.507812 24.765625 0.234375 33.921875 -13.734375 C 34.214844 -14.144531 33.511719 -14.378906 32.808594 -13.792969 C 24.296875 -0.703125 18.429688 8.570312 15.433594 8.390625 C 10.976562 8.097656 17.839844 -5.515625 15.492188 -6.457031 L 10.269531 -9.273438 C 18.78125 -9.800781 21.128906 -19.835938 17.605469 -21.65625 C 13.792969 -23.359375 9.039062 -17.195312 2.699219 -6.574219 C 3.167969 -9.917969 3.640625 -13.96875 4.050781 -16.550781 C 23.242188 -38.089844 20.363281 -50.472656 14.4375 -50.238281 C 1.644531 -49.710938 -0.585938 -10.445312 -2.171875 4.402344 C -2.289062 6.457031 1.113281 6.808594 1.410156 4.402344 L 2.464844 -4.753906 C 10.917969 -19.074219 14.789062 -21.714844 16.84375 -21.070312 C 20.246094 -20.011719 13.203125 -13.792969 8.804688 -9.566406 Z M 4.226562 -18.078125 C 5.808594 -32.277344 10.328125 -49.0625 14.144531 -49.359375 C 19.132812 -49.769531 21.832031 -39.085938 4.226562 -18.078125 Z M 4.226562 -18.078125 "/></g></g></g><g fill="#c60032" fill-opacity="1"><g transform="translate(146.124415, 202.184533)"><g><path d="M 6.324219 -7.246094 L 6.324219 -3.097656 L 6.445312 -1.285156 L 1.824219 -7.355469 C 1.703125 -7.535156 1.511719 -7.632812 1.332031 -7.632812 C 1.078125 -7.632812 0.851562 -7.453125 0.851562 -7.105469 L 0.851562 -0.445312 C 0.851562 -0.144531 1.078125 0 1.308594 0 C 1.535156 0 1.765625 -0.144531 1.765625 -0.445312 L 1.765625 -4.570312 L 1.667969 -6.226562 L 6.15625 -0.277344 C 6.265625 -0.0976562 6.480469 0 6.683594 0 C 6.960938 0 7.234375 -0.167969 7.234375 -0.515625 L 7.234375 -7.246094 C 7.234375 -7.511719 7.007812 -7.632812 6.792969 -7.632812 C 6.550781 -7.632812 6.324219 -7.5 6.324219 -7.246094 Z M 6.324219 -7.246094 "/></g></g></g><g fill="#c60032" fill-opacity="1"><g transform="translate(158.244448, 202.184533)"><g><path d="M 4.042969 -7.753906 C 3.886719 -7.753906 3.71875 -7.679688 3.648438 -7.523438 L 0.109375 -0.5625 C -0.0351562 -0.253906 0.265625 0 0.539062 0 C 0.683594 0 0.816406 -0.0585938 0.898438 -0.214844 L 1.789062 -1.933594 L 6.300781 -1.933594 L 7.164062 -0.226562 C 7.246094 -0.0585938 7.402344 0 7.558594 0 C 7.859375 0 8.136719 -0.238281 7.96875 -0.574219 L 4.429688 -7.523438 C 4.34375 -7.679688 4.199219 -7.753906 4.042969 -7.753906 Z M 4.042969 -6.46875 L 5.929688 -2.6875 L 2.148438 -2.6875 Z M 4.042969 -6.46875 "/></g></g></g><g fill="#c60032" fill-opacity="1"><g transform="translate(170.436488, 202.184533)"><g><path d="M 0.828125 -7.1875 L 0.828125 -0.421875 C 0.828125 -0.132812 1.042969 0 1.273438 0 C 1.5 0 1.726562 -0.144531 1.726562 -0.421875 L 1.726562 -7.1875 C 1.726562 -7.488281 1.5 -7.632812 1.273438 -7.632812 C 1.054688 -7.632812 0.828125 -7.488281 0.828125 -7.1875 Z M 0.828125 -7.1875 "/></g></g></g><g fill="#c60032" fill-opacity="1"><g transform="translate(176.904513, 202.184533)"><g><path d="M 1.367188 0 L 6.289062 0 C 6.898438 0 6.898438 -0.792969 6.289062 -0.792969 L 1.800781 -0.792969 L 1.800781 -7.210938 C 1.800781 -7.5 1.585938 -7.632812 1.355469 -7.632812 C 1.140625 -7.632812 0.910156 -7.5 0.910156 -7.210938 L 0.910156 -0.445312 C 0.910156 -0.15625 1.042969 0 1.367188 0 Z M 1.367188 0 "/></g></g></g><g fill="#c60032" fill-opacity="1"><g transform="translate(187.64455, 202.184533)"><g/></g></g><g fill="#c60032" fill-opacity="1"><g transform="translate(194.748584, 202.184533)"><g><path d="M 4.042969 -7.753906 C 3.886719 -7.753906 3.71875 -7.679688 3.648438 -7.523438 L 0.109375 -0.5625 C -0.0351562 -0.253906 0.265625 0 0.539062 0 C 0.683594 0 0.816406 -0.0585938 0.898438 -0.214844 L 1.789062 -1.933594 L 6.300781 -1.933594 L 7.164062 -0.226562 C 7.246094 -0.0585938 7.402344 0 7.558594 0 C 7.859375 0 8.136719 -0.238281 7.96875 -0.574219 L 4.429688 -7.523438 C 4.34375 -7.679688 4.199219 -7.753906 4.042969 -7.753906 Z M 4.042969 -6.46875 L 5.929688 -2.6875 L 2.148438 -2.6875 Z M 4.042969 -6.46875 "/></g></g></g><g fill="#c60032" fill-opacity="1"><g transform="translate(206.940626, 202.184533)"><g><path d="M 1.789062 -2.664062 L 4.117188 -2.664062 L 6.433594 -0.15625 C 6.527344 -0.046875 6.648438 0 6.757812 0 C 7.078125 0 7.367188 -0.394531 7.03125 -0.730469 L 5.195312 -2.710938 C 6.671875 -2.964844 7.332031 -3.839844 7.332031 -5.050781 C 7.332031 -6.457031 6.277344 -7.632812 4.199219 -7.632812 L 1.355469 -7.632812 C 1.09375 -7.632812 0.910156 -7.464844 0.910156 -7.210938 L 0.910156 -0.40625 C 0.910156 -0.144531 1.128906 0 1.34375 0 C 1.570312 0 1.789062 -0.144531 1.789062 -0.421875 Z M 1.789062 -3.421875 L 1.789062 -6.828125 L 4.210938 -6.828125 C 5.605469 -6.828125 6.433594 -6.035156 6.445312 -5.003906 C 6.445312 -4.128906 5.761719 -3.421875 4.210938 -3.421875 Z M 1.789062 -3.421875 "/></g></g></g><g fill="#c60032" fill-opacity="1"><g transform="translate(218.652669, 202.184533)"><g><path d="M 6.503906 -7.632812 L 0.289062 -7.632812 C -0.277344 -7.632812 -0.277344 -6.804688 0.289062 -6.804688 L 2.953125 -6.804688 L 2.953125 -0.445312 C 2.953125 -0.144531 3.179688 0 3.382812 0 C 3.589844 0 3.839844 -0.144531 3.839844 -0.445312 L 3.828125 -6.804688 L 6.503906 -6.804688 C 7.09375 -6.804688 7.09375 -7.632812 6.503906 -7.632812 Z M 6.503906 -7.632812 "/></g></g></g><g fill="#c60032" fill-opacity="1"><g transform="translate(229.548714, 202.184533)"><g/></g></g><g fill="#c60032" fill-opacity="1"><g transform="translate(236.652748, 202.184533)"><g><path d="M 0.265625 -1.679688 C 0.660156 -0.238281 2.53125 0.121094 3.757812 0.121094 C 5.230469 0.121094 7.285156 -0.382812 7.285156 -2.21875 C 7.285156 -4.019531 5.519531 -4.105469 3.875 -4.246094 C 2.484375 -4.355469 1.285156 -4.464844 1.285156 -5.507812 C 1.285156 -6.601562 2.84375 -6.863281 3.648438 -6.863281 C 4.511719 -6.863281 5.796875 -6.769531 6.15625 -5.855469 C 6.335938 -5.449219 7.152344 -5.664062 6.972656 -6.144531 C 6.46875 -7.511719 4.894531 -7.753906 3.636719 -7.753906 C 2.171875 -7.753906 0.347656 -7.105469 0.347656 -5.519531 C 0.347656 -3.730469 2.125 -3.574219 3.78125 -3.445312 C 5.101562 -3.335938 6.359375 -3.253906 6.359375 -2.207031 C 6.359375 -0.996094 4.777344 -0.742188 3.757812 -0.742188 C 2.796875 -0.742188 1.464844 -0.898438 1.152344 -1.894531 C 1.054688 -2.386719 0.121094 -2.207031 0.265625 -1.679688 Z M 0.265625 -1.679688 "/></g></g></g><g fill="#c60032" fill-opacity="1"><g transform="translate(248.232783, 202.184533)"><g><path d="M 6.503906 -7.632812 L 0.289062 -7.632812 C -0.277344 -7.632812 -0.277344 -6.804688 0.289062 -6.804688 L 2.953125 -6.804688 L 2.953125 -0.445312 C 2.953125 -0.144531 3.179688 0 3.382812 0 C 3.589844 0 3.839844 -0.144531 3.839844 -0.445312 L 3.828125 -6.804688 L 6.503906 -6.804688 C 7.09375 -6.804688 7.09375 -7.632812 6.503906 -7.632812 Z M 6.503906 -7.632812 "/></g></g></g><g fill="#c60032" fill-opacity="1"><g transform="translate(259.128828, 202.184533)"><g><path d="M 7.066406 -7.308594 L 7.066406 -3.347656 C 7.066406 -1.621094 5.746094 -0.742188 4.429688 -0.742188 C 3.109375 -0.742188 1.789062 -1.621094 1.789062 -3.347656 L 1.789062 -7.34375 C 1.789062 -7.621094 1.558594 -7.753906 1.332031 -7.753906 C 1.117188 -7.753906 0.886719 -7.621094 0.886719 -7.355469 L 0.886719 -3.347656 C 0.886719 -1.042969 2.675781 0.121094 4.429688 0.121094 C 6.179688 0.121094 7.96875 -1.042969 7.96875 -3.347656 L 7.96875 -7.320312 C 7.96875 -7.609375 7.738281 -7.753906 7.523438 -7.753906 C 7.296875 -7.753906 7.066406 -7.609375 7.066406 -7.308594 Z M 7.066406 -7.308594 "/></g></g></g><g fill="#c60032" fill-opacity="1"><g transform="translate(272.064874, 202.184533)"><g><path d="M 1.019531 0 L 3.636719 0 C 6.023438 0 7.210938 -1.90625 7.210938 -3.816406 C 7.210938 -5.722656 6.023438 -7.632812 3.636719 -7.632812 L 1.019531 -7.632812 C 0.71875 -7.632812 0.46875 -7.402344 0.46875 -7.128906 L 0.46875 -0.515625 C 0.46875 -0.238281 0.71875 0 1.019531 0 Z M 1.332031 -0.78125 L 1.332031 -6.863281 L 3.636719 -6.863281 C 5.4375 -6.863281 6.335938 -5.328125 6.335938 -3.816406 C 6.335938 -2.304688 5.4375 -0.78125 3.636719 -0.78125 Z M 1.332031 -0.78125 "/></g></g></g><g fill="#c60032" fill-opacity="1"><g transform="translate(283.776917, 202.184533)"><g><path d="M 0.828125 -7.1875 L 0.828125 -0.421875 C 0.828125 -0.132812 1.042969 0 1.273438 0 C 1.5 0 1.726562 -0.144531 1.726562 -0.421875 L 1.726562 -7.1875 C 1.726562 -7.488281 1.5 -7.632812 1.273438 -7.632812 C 1.054688 -7.632812 0.828125 -7.488281 0.828125 -7.1875 Z M 0.828125 -7.1875 "/></g></g></g><g fill="#c60032" fill-opacity="1"><g transform="translate(290.244946, 202.184533)"><g><path d="M 4.332031 0.121094 C 6.371094 0.121094 8.171875 -1.453125 8.171875 -3.949219 C 8.171875 -6.648438 5.84375 -7.753906 4.234375 -7.753906 C 2.652344 -7.753906 0.445312 -6.636719 0.445312 -3.949219 C 0.445312 -1.402344 2.171875 0.121094 4.332031 0.121094 Z M 1.34375 -3.910156 C 1.34375 -6.167969 3.035156 -6.949219 4.261719 -6.949219 C 5.496094 -6.949219 7.285156 -6.109375 7.285156 -3.910156 C 7.285156 -1.894531 5.953125 -0.695312 4.332031 -0.695312 C 2.640625 -0.695312 1.34375 -1.945312 1.34375 -3.910156 Z M 1.34375 -3.910156 "/></g></g></g><path stroke-linecap="butt" transform="matrix(0.75, -0.000000000000000186, 0.000000000000000186, 0.75, 129.759913, 186.749988)" fill="none" stroke-linejoin="miter" d="M 0.00240796 0.500016 L 246.028466 0.500016 " stroke="#c60032" stroke-width="1" stroke-opacity="1" stroke-miterlimit="4"/></svg>